<svg xmlns="http://www.w3.org/2000/svg" xml:space="preserve" width="880" height="427.59" viewBox="0 0 880 427.59"><path fill="#0f0e0e" d="M224.14 14.48c22.56 9.65 40.73 23.3 54.52 40.93s20.69 38.26 20.69 61.91c0 23.24-6.9 42.8-20.69 58.66-13.79 15.85-32.02 28.56-54.67 38.12-22.66 9.55-47.18 16.6-73.58 21.13-20.29 3.74-38.52 7.98-54.67 12.71-16.16 4.73-28.91 11.87-38.27 21.42s-14.04 23.2-14.04 40.93c0 15.17 5.02 28.41 15.07 39.74 10.05 11.32 23.2 20.19 39.45 26.59s33.74 9.5 52.45 9.31c16.35 0 32.21-2.32 47.58-6.95s28.81-11.33 40.34-20.09q17.28-13.155 23.79-31.77l39.3 14.18c-6.9 18.52-18.18 34.18-33.84 46.99-15.66 12.8-33.74 22.55-54.22 29.25-20.49 6.69-41.47 10.04-62.94 10.04-26.2 0-50.58-4.83-73.14-14.48-22.56-9.66-40.74-23.25-54.52-40.78C8.96 354.8 2.07 334.11 2.07 310.28c0-25.41 6.5-45.86 19.5-61.32 13-15.47 30.68-27.44 53.05-35.9 22.35-8.47 47.62-15.17 75.8-20.09 17.93-3.15 35.11-7.64 51.57-13.45 16.45-5.81 29.89-13.74 40.34-23.79 10.44-10.04 15.66-22.85 15.66-38.41 0-15.37-5.02-28.72-15.07-40.04-10.05-11.33-23.25-20.14-39.6-26.45s-33.98-9.46-52.9-9.46c-16.16 0-31.96 2.36-47.43 7.09S74.02 59.94 62.5 68.71c-11.52 8.76-19.46 19.25-23.79 31.47L0 85.7c6.3-17.73 17.14-33 32.51-45.8 15.37-12.81 33.34-22.66 53.93-29.55C107.02 3.45 128.34 0 150.41 0c26.59 0 51.17 4.83 73.73 14.48"/><g fill="#0f0e0e"><path d="m378.45 427.59 19.95-143.24h45.05l-35.07 143.24zM420.6 197.36c-7.29 0-13.46-2.26-18.5-6.78s-7.56-10.03-7.56-16.51q0-10.02 7.56-16.95c5.04-4.62 11.21-6.93 18.5-6.93 6.86 0 12.82 2.31 17.86 6.93q7.56 6.93 7.56 16.95c0 6.49-2.52 11.99-7.56 16.51s-10.99 6.78-17.86 6.78"/></g><g fill="#98cb65"><path d="M871.14 383.27c-5.9 7.87-11.14 13.58-15.67 17.12s-10.16 5.31-16.85 5.31c-7.48 0-13.38-3.54-17.71-10.63s-8.5-19.68-12.4-37.83l-14.8-60.27c-5.51-24.84-14.17-42.95-25.98-54.4-11.85-11.42-30.74-19.29-56.76-23.62l-7.09-1.18c27.59-4.33 49.95-12.71 67.08-25.11 17.16-12.4 29.37-26.41 36.65-41.96s10.94-31.02 10.94-46.41q0-45.465-36.96-74.16C756.99 11.04 721.8 1.48 676.13 1.48c-9.49 0-17.95.2-25.43.59l-63.85.59c-31.49 0-55.54-.59-72.08-1.77V12.7c14.17.79 24.52 2.36 31.02 4.72 6.49 2.36 10.94 6.89 13.31 13.62 2.36 6.69 3.54 17.52 3.54 32.48v145.41h54.95V63.51c0-14.17 1.18-24.8 3.54-31.88 2.36-7.12 6.61-12.05 12.71-14.8 6.1-2.76 15.27-4.13 27.48-4.13 34.68 0 59.72 8.27 75.07 24.84 15.35 16.53 23.03 40.98 23.03 73.26 0 30.74-7.28 54.79-21.85 72.12-14.56 17.36-41.37 26.02-80.38 26.02h-39.6v11.81h56.13c15 0 26.61 3.35 34.88 10.04s14.49 15.59 18.62 26.61 8.58 26.81 13.31 47.28l12.99 59.09c5.12 23.66 12.91 40.19 23.34 49.64 10.43 9.49 23.74 14.21 39.92 14.21 14.96 0 26.96-2.95 36.06-8.86 9.05-5.94 18.11-15.59 27.16-28.97z"/><path d="M562.65 326.84c0 15.62-1.18 26.9-3.54 33.87s-6.81 11.69-13.31 14.14c-6.5 2.46-16.85 4.1-31.02 4.92v12.34c16.53-1.23 41.77-1.85 75.62-1.85 31.92 0 56.96.62 75.07 1.85v-12.34c-14.17-.82-24.52-2.46-31.02-4.92s-10.94-7.18-13.31-14.14c-2.36-6.97-3.54-18.25-3.54-33.87V220.72h-54.95zM665.47 426.98v-12.34c-16.53 1.23-41.77 1.85-75.62 1.85-31.92 0-56.96-.62-75.07-1.85v12.34c14.17.82 136.51.82 150.69 0"/></g></svg>